<svg xmlns="http://www.w3.org/2000/svg" width="3204px" height="1848px" viewBox="0 0 3204 1848" xmlns:xlink="http://www.w3.org/1999/xlink" style="overflow: auto; display: block; width: 3204px; height: 1848px;"><rect width="3204px" height="1848px" fill="white"/><defs><path fill="rgb(255,255,255)" stroke="rgb(0,0,0)" d="M 0,0 L 5,-3 L 10,0 L 5,3 Z" fill-opacity="1" stroke-opacity="1" stroke-width="1" stroke-linecap="butt" stroke-linejoin="miter" stroke-miterlimit="10" id="ygc50_0"/></defs><g style="pointer-events:visiblePainted" transform="matrix(3.1 0 0 3.1 32.93632343301714 93)" image-rendering="auto" shape-rendering="auto"><g style="box-sizing:initial;"><g><path fill="none" stroke="rgb(0,0,0)" d="M 315.44036686058394,238 L 315.4404761904762,188" stroke-opacity="1" stroke-width="1" stroke-linecap="butt" stroke-linejoin="miter" stroke-miterlimit="10"/></g><g><path fill="none" stroke="rgb(0,0,0)" d="M 726.1369047619048,380 L 726.1369047619048,419 L 396.0056648854478,419 L 396.0056648854478,394" stroke-opacity="1" stroke-width="1" stroke-linecap="butt" stroke-linejoin="miter" stroke-miterlimit="10"/><g/><use xlink:href="#ygc50_0" transform="matrix(0 1 -1 0 726.1369047619048 371)" style="pointer-events: none;"/></g><g><path fill="none" stroke="rgb(0,0,0)" d="M 255.15755697020006,316 L 275.157717848152,316" stroke-opacity="1" stroke-width="1" stroke-linecap="butt" stroke-linejoin="miter" stroke-miterlimit="10"/><g/><use xlink:href="#ygc50_0" transform="translate(246.15755697020006 316)" style="pointer-events: none;"/></g><g><path fill="none" stroke="rgb(0,0,0)" d="M 466.28832874012977,316 L 436.28831389787973,316" stroke-opacity="1" stroke-width="1" stroke-linecap="butt" stroke-linejoin="miter" stroke-miterlimit="10"/></g><g><path fill="none" stroke="rgb(0,0,0)" d="M 315.4404761904762,444 L 315.44036686058394,394" stroke-opacity="1" stroke-width="1" stroke-linecap="butt" stroke-linejoin="miter" stroke-miterlimit="10"/></g><g><path fill="none" stroke="rgb(0,0,0)" d="M 739.2531746031746,156 L 739.2531746031746,213 L 396.0056648854478,213 L 396.0056648854478,238" stroke-opacity="1" stroke-width="1" stroke-linecap="butt" stroke-linejoin="miter" stroke-miterlimit="10"/></g><g><path fill="none" stroke="rgb(0,0,0)" d="M 415.0029761904762,94 L 445.00297619047615,94" stroke-opacity="1" stroke-width="1" stroke-linecap="butt" stroke-linejoin="miter" stroke-miterlimit="10"/></g><g><path fill="none" stroke="rgb(0,0,0)" d="M 850.7621031746032,316 L 820.7619047619048,316" stroke-opacity="1" stroke-width="1" stroke-linecap="butt" stroke-linejoin="miter" stroke-miterlimit="10"/></g><g class="uml-node" transform="translate(275.157717848152 238)"><rect fill="rgb(96,125,139)" stroke="rgb(96,125,139)" stroke-opacity="1" stroke-width="2" stroke-linecap="butt" stroke-linejoin="miter" stroke-miterlimit="10" fill-opacity="1" x="0" y="0" width="161.131" height="156" rx="0" ry="0"/><g transform="translate(0 0)"><text font-family="Arial" font-size="12px" font-style="normal" font-weight="normal" text-decoration="none" text-anchor="middle" fill="rgb(255,255,255)" fill-opacity="1" dy="0.9166666666666666em" transform="translate(80.56529802486386 18)">NonogramGame</text></g><rect fill="rgb(255,255,255)" x="1" y="50" width="159.13059604972773" height="2"/><g transform="translate(0 52)" cursor="pointer"><rect fill="rgb(96,125,139)" stroke="none" fill-opacity="1" x="0" y="0" width="161.131" height="20" rx="0" ry="0"/><polygon fill="white" points="-5,-3.5 5,-3.5 0,6" transform="translate(12 10)" class="uml-button"/><g class="uml-button"><rect fill="rgb(96,125,139)" fill-opacity="1" x="124.13059604972773px" y="2px" width="16px" height="16px"/><path fill="white" d="M8.5,16.5c-4.418,0-8,3.582-8,8s3.582,8,8,8c4.418,0,8-3.582,8-8S12.918,16.5,8.5,16.5z M13.5,25.5h-4v4h-2v-4h-4v-2h4v-4h2v4h4V25.5z" transform="matrix(0.8 0 0 0.8 125.13059604972773 -10)"/></g><g class="uml-button disabled"><rect fill="rgb(96,125,139)" fill-opacity="1" x="142.13059604972773px" y="2px" width="16px" height="16px"/><path fill="white" fill-opacity="0.5" d="M8.5,16.5c-4.418,0-8,3.582-8,8s3.582,8,8,8c4.418,0,8-3.582,8-8S12.918,16.5,8.5,16.5z M13.5,25.5h-10v-2h10V25.5z" transform="matrix(0.8 0 0 0.8 143.13059604972773 -10)"/></g></g><g transform="translate(25 52)" cursor="pointer"><text font-family="Arial" font-size="12px" font-style="normal" font-weight="normal" text-decoration="none" text-anchor="start" fill="rgb(255,255,255)" fill-opacity="1" dy="0.9166666666666666em" transform="translate(0 3)">Attributes</text></g><rect fill="rgb(255,255,255)" x="1" y="72" width="159.13059604972773" height="0"/><g transform="translate(0 72)" cursor="pointer"><rect fill="rgb(96,125,139)" stroke="none" fill-opacity="1" x="0" y="0" width="161.131" height="20" rx="0" ry="0"/><polygon fill="white" points="-5,-3.5 5,-3.5 0,6" transform="translate(12 10)" class="uml-button"/><g class="uml-button"><rect fill="rgb(96,125,139)" fill-opacity="1" x="124.13059604972773px" y="2px" width="16px" height="16px"/><path fill="white" d="M8.5,16.5c-4.418,0-8,3.582-8,8s3.582,8,8,8c4.418,0,8-3.582,8-8S12.918,16.5,8.5,16.5z M13.5,25.5h-4v4h-2v-4h-4v-2h4v-4h2v4h4V25.5z" transform="matrix(0.8 0 0 0.8 125.13059604972773 -10)"/></g><g class="uml-button disabled"><rect fill="rgb(96,125,139)" fill-opacity="1" x="142.13059604972773px" y="2px" width="16px" height="16px"/><path fill="white" fill-opacity="0.5" d="M8.5,16.5c-4.418,0-8,3.582-8,8s3.582,8,8,8c4.418,0,8-3.582,8-8S12.918,16.5,8.5,16.5z M13.5,25.5h-10v-2h10V25.5z" transform="matrix(0.8 0 0 0.8 143.13059604972773 -10)"/></g></g><g transform="translate(25 72)" cursor="pointer"><text font-family="Arial" font-size="12px" font-style="normal" font-weight="normal" text-decoration="none" text-anchor="start" fill="rgb(255,255,255)" fill-opacity="1" dy="0.9166666666666666em" transform="translate(0 3)">Operations</text></g><rect fill="rgb(255,255,255)" x="1" y="92" width="159.13059604972773" height="64"/><g transform="translate(25 92)"><text font-family="Arial" font-size="12px" font-style="normal" font-weight="normal" text-decoration="none" text-anchor="start" fill="rgb(0,0,0)" fill-opacity="1" dy="0.9166666666666666em" transform="translate(0 1)">draw_board()</text></g><g transform="translate(25 108)"><text font-family="Arial" font-size="12px" font-style="normal" font-weight="normal" text-decoration="none" text-anchor="start" fill="rgb(0,0,0)" fill-opacity="1" dy="0.9166666666666666em" transform="translate(0 1)">draw_border()</text></g><g transform="translate(25 124)"><text font-family="Arial" font-size="12px" font-style="normal" font-weight="normal" text-decoration="none" text-anchor="start" fill="rgb(0,0,0)" fill-opacity="1" dy="0.9166666666666666em" transform="translate(0 1)">handle_click()</text></g><g transform="translate(25 140)"><text font-family="Arial" font-size="12px" font-style="normal" font-weight="normal" text-decoration="none" text-anchor="start" fill="rgb(0,0,0)" fill-opacity="1" dy="0.9166666666666666em" transform="translate(0 1)">main()</text></g><rect fill="rgb(255,255,255)" x="1" y="156" width="159.13059604972773" height="0"/></g><g class="uml-node" transform="translate(215.8779761904762 0)"><rect fill="rgb(96,125,139)" stroke="rgb(96,125,139)" stroke-opacity="1" stroke-width="2" stroke-linecap="butt" stroke-linejoin="miter" stroke-miterlimit="10" fill-opacity="1" x="0" y="0" width="199.125" height="188" rx="0" ry="0"/><g transform="translate(0 0)"><text font-family="Arial" font-size="12px" font-style="normal" font-weight="normal" text-decoration="none" text-anchor="middle" fill="rgb(255,255,255)" fill-opacity="1" dy="0.9166666666666666em" transform="translate(99.5625 18)">Nonogram</text></g><rect fill="rgb(255,255,255)" x="1" y="50" width="197.125" height="2"/><g transform="translate(0 52)" cursor="pointer"><rect fill="rgb(96,125,139)" stroke="none" fill-opacity="1" x="0" y="0" width="199.125" height="20" rx="0" ry="0"/><polygon fill="white" points="-5,-3.5 5,-3.5 0,6" transform="translate(12 10)" class="uml-button"/><g class="uml-button"><rect fill="rgb(96,125,139)" fill-opacity="1" x="162.125px" y="2px" width="16px" height="16px"/><path fill="white" d="M8.5,16.5c-4.418,0-8,3.582-8,8s3.582,8,8,8c4.418,0,8-3.582,8-8S12.918,16.5,8.5,16.5z M13.5,25.5h-4v4h-2v-4h-4v-2h4v-4h2v4h4V25.5z" transform="matrix(0.8 0 0 0.8 163.125 -10)"/></g><g class="uml-button disabled"><rect fill="rgb(96,125,139)" fill-opacity="1" x="180.125px" y="2px" width="16px" height="16px"/><path fill="white" fill-opacity="0.5" d="M8.5,16.5c-4.418,0-8,3.582-8,8s3.582,8,8,8c4.418,0,8-3.582,8-8S12.918,16.5,8.5,16.5z M13.5,25.5h-10v-2h10V25.5z" transform="matrix(0.8 0 0 0.8 181.125 -10)"/></g></g><g transform="translate(25 52)" cursor="pointer"><text font-family="Arial" font-size="12px" font-style="normal" font-weight="normal" text-decoration="none" text-anchor="start" fill="rgb(255,255,255)" fill-opacity="1" dy="0.9166666666666666em" transform="translate(0 3)">Attributes</text></g><rect fill="rgb(255,255,255)" x="1" y="72" width="197.125" height="32"/><g transform="translate(25 72)"><text font-family="Arial" font-size="12px" font-style="normal" font-weight="normal" text-decoration="none" text-anchor="start" fill="rgb(0,0,0)" fill-opacity="1" dy="0.9166666666666666em" transform="translate(0 1)">board: NestedList</text></g><g transform="translate(25 88)"><text font-family="Arial" font-size="12px" font-style="normal" font-weight="normal" text-decoration="none" text-anchor="start" fill="rgb(0,0,0)" fill-opacity="1" dy="0.9166666666666666em" transform="translate(0 1)">constraints: NestedList</text></g><g transform="translate(0 104)" cursor="pointer"><rect fill="rgb(96,125,139)" stroke="none" fill-opacity="1" x="0" y="0" width="199.125" height="20" rx="0" ry="0"/><polygon fill="white" points="-5,-3.5 5,-3.5 0,6" transform="translate(12 10)" class="uml-button"/><g class="uml-button"><rect fill="rgb(96,125,139)" fill-opacity="1" x="162.125px" y="2px" width="16px" height="16px"/><path fill="white" d="M8.5,16.5c-4.418,0-8,3.582-8,8s3.582,8,8,8c4.418,0,8-3.582,8-8S12.918,16.5,8.5,16.5z M13.5,25.5h-4v4h-2v-4h-4v-2h4v-4h2v4h4V25.5z" transform="matrix(0.8 0 0 0.8 163.125 -10)"/></g><g class="uml-button disabled"><rect fill="rgb(96,125,139)" fill-opacity="1" x="180.125px" y="2px" width="16px" height="16px"/><path fill="white" fill-opacity="0.5" d="M8.5,16.5c-4.418,0-8,3.582-8,8s3.582,8,8,8c4.418,0,8-3.582,8-8S12.918,16.5,8.5,16.5z M13.5,25.5h-10v-2h10V25.5z" transform="matrix(0.8 0 0 0.8 181.125 -10)"/></g></g><g transform="translate(25 104)" cursor="pointer"><text font-family="Arial" font-size="12px" font-style="normal" font-weight="normal" text-decoration="none" text-anchor="start" fill="rgb(255,255,255)" fill-opacity="1" dy="0.9166666666666666em" transform="translate(0 3)">Operations</text></g><rect fill="rgb(255,255,255)" x="1" y="124" width="197.125" height="64"/><g transform="translate(25 124)"><text font-family="Arial" font-size="12px" font-style="normal" font-weight="normal" text-decoration="none" text-anchor="start" fill="rgb(0,0,0)" fill-opacity="1" dy="0.9166666666666666em" transform="translate(0 1)">setup_vars():list()</text></g><g transform="translate(25 140)"><text font-family="Arial" font-size="12px" font-style="normal" font-weight="normal" text-decoration="none" text-anchor="start" fill="rgb(0,0,0)" fill-opacity="1" dy="0.9166666666666666em" transform="translate(0 1)">setup_cell_constraints()</text></g><g transform="translate(25 156)"><text font-family="Arial" font-size="12px" font-style="normal" font-weight="normal" text-decoration="none" text-anchor="start" fill="rgb(0,0,0)" fill-opacity="1" dy="0.9166666666666666em" transform="translate(0 1)">solve()</text></g><g transform="translate(25 172)"><text font-family="Arial" font-size="12px" font-style="normal" font-weight="normal" text-decoration="none" text-anchor="start" fill="rgb(0,0,0)" fill-opacity="1" dy="0.9166666666666666em" transform="translate(0 1)">check_answers():Boolean</text></g><rect fill="rgb(255,255,255)" x="1" y="188" width="197.125" height="0"/></g><g class="uml-node" transform="translate(19.375379537736407 262)"><rect fill="rgb(96,125,139)" stroke="rgb(96,125,139)" stroke-opacity="1" stroke-width="2" stroke-linecap="butt" stroke-linejoin="miter" stroke-miterlimit="10" fill-opacity="1" x="0" y="0" width="225.782" height="108" rx="0" ry="0"/><g transform="translate(0 0)"><text font-family="Arial" font-size="12px" font-style="normal" font-weight="normal" text-decoration="none" text-anchor="middle" fill="rgb(255,255,255)" fill-opacity="1" dy="0.9166666666666666em" transform="translate(112.89108871623183 18)">Constraints</text></g><rect fill="rgb(255,255,255)" x="1" y="50" width="223.78217743246367" height="2"/><g transform="translate(0 52)" cursor="pointer"><rect fill="rgb(96,125,139)" stroke="none" fill-opacity="1" x="0" y="0" width="225.782" height="20" rx="0" ry="0"/><polygon fill="white" points="-5,-3.5 5,-3.5 0,6" transform="translate(12 10)" class="uml-button"/><g class="uml-button"><rect fill="rgb(96,125,139)" fill-opacity="1" x="188.78217743246367px" y="2px" width="16px" height="16px"/><path fill="white" d="M8.5,16.5c-4.418,0-8,3.582-8,8s3.582,8,8,8c4.418,0,8-3.582,8-8S12.918,16.5,8.5,16.5z M13.5,25.5h-4v4h-2v-4h-4v-2h4v-4h2v4h4V25.5z" transform="matrix(0.8 0 0 0.8 189.78217743246367 -10)"/></g><g class="uml-button disabled"><rect fill="rgb(96,125,139)" fill-opacity="1" x="206.78217743246367px" y="2px" width="16px" height="16px"/><path fill="white" fill-opacity="0.5" d="M8.5,16.5c-4.418,0-8,3.582-8,8s3.582,8,8,8c4.418,0,8-3.582,8-8S12.918,16.5,8.5,16.5z M13.5,25.5h-10v-2h10V25.5z" transform="matrix(0.8 0 0 0.8 207.78217743246367 -10)"/></g></g><g transform="translate(25 52)" cursor="pointer"><text font-family="Arial" font-size="12px" font-style="normal" font-weight="normal" text-decoration="none" text-anchor="start" fill="rgb(255,255,255)" fill-opacity="1" dy="0.9166666666666666em" transform="translate(0 3)">Attributes</text></g><rect fill="rgb(255,255,255)" x="1" y="72" width="223.78217743246367" height="0"/><g transform="translate(0 72)" cursor="pointer"><rect fill="rgb(96,125,139)" stroke="none" fill-opacity="1" x="0" y="0" width="225.782" height="20" rx="0" ry="0"/><polygon fill="white" points="-5,-3.5 5,-3.5 0,6" transform="translate(12 10)" class="uml-button"/><g class="uml-button"><rect fill="rgb(96,125,139)" fill-opacity="1" x="188.78217743246367px" y="2px" width="16px" height="16px"/><path fill="white" d="M8.5,16.5c-4.418,0-8,3.582-8,8s3.582,8,8,8c4.418,0,8-3.582,8-8S12.918,16.5,8.5,16.5z M13.5,25.5h-4v4h-2v-4h-4v-2h4v-4h2v4h4V25.5z" transform="matrix(0.8 0 0 0.8 189.78217743246367 -10)"/></g><g class="uml-button disabled"><rect fill="rgb(96,125,139)" fill-opacity="1" x="206.78217743246367px" y="2px" width="16px" height="16px"/><path fill="white" fill-opacity="0.5" d="M8.5,16.5c-4.418,0-8,3.582-8,8s3.582,8,8,8c4.418,0,8-3.582,8-8S12.918,16.5,8.5,16.5z M13.5,25.5h-10v-2h10V25.5z" transform="matrix(0.8 0 0 0.8 207.78217743246367 -10)"/></g></g><g transform="translate(25 72)" cursor="pointer"><text font-family="Arial" font-size="12px" font-style="normal" font-weight="normal" text-decoration="none" text-anchor="start" fill="rgb(255,255,255)" fill-opacity="1" dy="0.9166666666666666em" transform="translate(0 3)">Operations</text></g><rect fill="rgb(255,255,255)" x="1" y="92" width="223.78217743246367" height="16"/><g transform="translate(25 92)"><text font-family="Arial" font-size="12px" font-style="normal" font-weight="normal" text-decoration="none" text-anchor="start" fill="rgb(0,0,0)" fill-opacity="1" dy="0.9166666666666666em" transform="translate(0 1)">generate_constraints():NestedList</text></g><rect fill="rgb(255,255,255)" x="1" y="108" width="223.78217743246367" height="0"/></g><g class="uml-node" transform="translate(466.28832874012977 262)"><rect fill="rgb(96,125,139)" stroke="rgb(96,125,139)" stroke-opacity="1" stroke-width="2" stroke-linecap="butt" stroke-linejoin="miter" stroke-miterlimit="10" fill-opacity="1" x="0" y="0" width="135.223" height="108" rx="0" ry="0"/><g transform="translate(0 0)"><text font-family="Arial" font-size="12px" font-style="normal" font-weight="normal" text-decoration="none" text-anchor="middle" fill="rgb(255,255,255)" fill-opacity="1" dy="0.9166666666666666em" transform="translate(67.6116712598702 18)">Hints</text></g><rect fill="rgb(255,255,255)" x="1" y="50" width="133.2233425197404" height="2"/><g transform="translate(0 52)" cursor="pointer"><rect fill="rgb(96,125,139)" stroke="none" fill-opacity="1" x="0" y="0" width="135.223" height="20" rx="0" ry="0"/><polygon fill="white" points="-5,-3.5 5,-3.5 0,6" transform="translate(12 10)" class="uml-button"/><g class="uml-button"><rect fill="rgb(96,125,139)" fill-opacity="1" x="98.22334251974041px" y="2px" width="16px" height="16px"/><path fill="white" d="M8.5,16.5c-4.418,0-8,3.582-8,8s3.582,8,8,8c4.418,0,8-3.582,8-8S12.918,16.5,8.5,16.5z M13.5,25.5h-4v4h-2v-4h-4v-2h4v-4h2v4h4V25.5z" transform="matrix(0.8 0 0 0.8 99.22334251974041 -10)"/></g><g class="uml-button disabled"><rect fill="rgb(96,125,139)" fill-opacity="1" x="116.22334251974041px" y="2px" width="16px" height="16px"/><path fill="white" fill-opacity="0.5" d="M8.5,16.5c-4.418,0-8,3.582-8,8s3.582,8,8,8c4.418,0,8-3.582,8-8S12.918,16.5,8.5,16.5z M13.5,25.5h-10v-2h10V25.5z" transform="matrix(0.8 0 0 0.8 117.22334251974041 -10)"/></g></g><g transform="translate(25 52)" cursor="pointer"><text font-family="Arial" font-size="12px" font-style="normal" font-weight="normal" text-decoration="none" text-anchor="start" fill="rgb(255,255,255)" fill-opacity="1" dy="0.9166666666666666em" transform="translate(0 3)">Attributes</text></g><rect fill="rgb(255,255,255)" x="1" y="72" width="133.2233425197404" height="0"/><g transform="translate(0 72)" cursor="pointer"><rect fill="rgb(96,125,139)" stroke="none" fill-opacity="1" x="0" y="0" width="135.223" height="20" rx="0" ry="0"/><polygon fill="white" points="-5,-3.5 5,-3.5 0,6" transform="translate(12 10)" class="uml-button"/><g class="uml-button"><rect fill="rgb(96,125,139)" fill-opacity="1" x="98.22334251974041px" y="2px" width="16px" height="16px"/><path fill="white" d="M8.5,16.5c-4.418,0-8,3.582-8,8s3.582,8,8,8c4.418,0,8-3.582,8-8S12.918,16.5,8.5,16.5z M13.5,25.5h-4v4h-2v-4h-4v-2h4v-4h2v4h4V25.5z" transform="matrix(0.8 0 0 0.8 99.22334251974041 -10)"/></g><g class="uml-button disabled"><rect fill="rgb(96,125,139)" fill-opacity="1" x="116.22334251974041px" y="2px" width="16px" height="16px"/><path fill="white" fill-opacity="0.5" d="M8.5,16.5c-4.418,0-8,3.582-8,8s3.582,8,8,8c4.418,0,8-3.582,8-8S12.918,16.5,8.5,16.5z M13.5,25.5h-10v-2h10V25.5z" transform="matrix(0.8 0 0 0.8 117.22334251974041 -10)"/></g></g><g transform="translate(25 72)" cursor="pointer"><text font-family="Arial" font-size="12px" font-style="normal" font-weight="normal" text-decoration="none" text-anchor="start" fill="rgb(255,255,255)" fill-opacity="1" dy="0.9166666666666666em" transform="translate(0 3)">Operations</text></g><rect fill="rgb(255,255,255)" x="1" y="92" width="133.2233425197404" height="16"/><g transform="translate(25 92)"><text font-family="Arial" font-size="12px" font-style="normal" font-weight="normal" text-decoration="none" text-anchor="start" fill="rgb(0,0,0)" fill-opacity="1" dy="0.9166666666666666em" transform="translate(0 1)">check_board()</text></g><rect fill="rgb(255,255,255)" x="1" y="108" width="133.2233425197404" height="0"/></g><g class="uml-node" transform="translate(631.5119047619048 262)"><rect fill="rgb(96,125,139)" stroke="rgb(96,125,139)" stroke-opacity="1" stroke-width="2" stroke-linecap="butt" stroke-linejoin="miter" stroke-miterlimit="10" fill-opacity="1" x="0" y="0" width="189.25" height="108" rx="0" ry="0"/><g transform="translate(0 0)"><text font-family="Arial" font-size="12px" font-style="normal" font-weight="normal" text-decoration="none" text-anchor="middle" fill="rgb(255,255,255)" fill-opacity="1" dy="0.9166666666666666em" transform="translate(94.625 18)">Board</text></g><rect fill="rgb(255,255,255)" x="1" y="50" width="187.25" height="2"/><g transform="translate(0 52)" cursor="pointer"><rect fill="rgb(96,125,139)" stroke="none" fill-opacity="1" x="0" y="0" width="189.25" height="20" rx="0" ry="0"/><polygon fill="white" points="-5,-3.5 5,-3.5 0,6" transform="translate(12 10)" class="uml-button"/><g class="uml-button"><rect fill="rgb(96,125,139)" fill-opacity="1" x="152.25px" y="2px" width="16px" height="16px"/><path fill="white" d="M8.5,16.5c-4.418,0-8,3.582-8,8s3.582,8,8,8c4.418,0,8-3.582,8-8S12.918,16.5,8.5,16.5z M13.5,25.5h-4v4h-2v-4h-4v-2h4v-4h2v4h4V25.5z" transform="matrix(0.8 0 0 0.8 153.25 -10)"/></g><g class="uml-button disabled"><rect fill="rgb(96,125,139)" fill-opacity="1" x="170.25px" y="2px" width="16px" height="16px"/><path fill="white" fill-opacity="0.5" d="M8.5,16.5c-4.418,0-8,3.582-8,8s3.582,8,8,8c4.418,0,8-3.582,8-8S12.918,16.5,8.5,16.5z M13.5,25.5h-10v-2h10V25.5z" transform="matrix(0.8 0 0 0.8 171.25 -10)"/></g></g><g transform="translate(25 52)" cursor="pointer"><text font-family="Arial" font-size="12px" font-style="normal" font-weight="normal" text-decoration="none" text-anchor="start" fill="rgb(255,255,255)" fill-opacity="1" dy="0.9166666666666666em" transform="translate(0 3)">Attributes</text></g><rect fill="rgb(255,255,255)" x="1" y="72" width="187.25" height="0"/><g transform="translate(0 72)" cursor="pointer"><rect fill="rgb(96,125,139)" stroke="none" fill-opacity="1" x="0" y="0" width="189.25" height="20" rx="0" ry="0"/><polygon fill="white" points="-5,-3.5 5,-3.5 0,6" transform="translate(12 10)" class="uml-button"/><g class="uml-button"><rect fill="rgb(96,125,139)" fill-opacity="1" x="152.25px" y="2px" width="16px" height="16px"/><path fill="white" d="M8.5,16.5c-4.418,0-8,3.582-8,8s3.582,8,8,8c4.418,0,8-3.582,8-8S12.918,16.5,8.5,16.5z M13.5,25.5h-4v4h-2v-4h-4v-2h4v-4h2v4h4V25.5z" transform="matrix(0.8 0 0 0.8 153.25 -10)"/></g><g class="uml-button disabled"><rect fill="rgb(96,125,139)" fill-opacity="1" x="170.25px" y="2px" width="16px" height="16px"/><path fill="white" fill-opacity="0.5" d="M8.5,16.5c-4.418,0-8,3.582-8,8s3.582,8,8,8c4.418,0,8-3.582,8-8S12.918,16.5,8.5,16.5z M13.5,25.5h-10v-2h10V25.5z" transform="matrix(0.8 0 0 0.8 171.25 -10)"/></g></g><g transform="translate(25 72)" cursor="pointer"><text font-family="Arial" font-size="12px" font-style="normal" font-weight="normal" text-decoration="none" text-anchor="start" fill="rgb(255,255,255)" fill-opacity="1" dy="0.9166666666666666em" transform="translate(0 3)">Operations</text></g><rect fill="rgb(255,255,255)" x="1" y="92" width="187.25" height="16"/><g transform="translate(25 92)"><text font-family="Arial" font-size="12px" font-style="normal" font-weight="normal" text-decoration="none" text-anchor="start" fill="rgb(0,0,0)" fill-opacity="1" dy="0.9166666666666666em" transform="translate(0 1)">generate_board():NestedList</text></g><rect fill="rgb(255,255,255)" x="1" y="108" width="187.25" height="0"/></g><g transform="translate(445.00297619047615 64)"><path fill="rgb(176,190,197)" fill-opacity="1" stroke="rgb(0,0,0)" stroke-opacity="1" stroke-width="1" stroke-linecap="butt" stroke-linejoin="miter" stroke-miterlimit="10" d="M 0 0 L 0 60 L 198.125 60 L 198.125 15 L 183.125 0 Z"/><path fill="rgb(255,255,255)" fill-opacity="1" stroke="rgb(0,0,0)" stroke-opacity="1" stroke-width="1" stroke-linecap="butt" stroke-linejoin="miter" stroke-miterlimit="0" d="M 183.125 0 L 183.125 15 L 198.125 15 Z"/></g><g transform="translate(452.56547619047615 78)"><text font-family="Arial" font-size="12px" font-style="normal" font-weight="normal" text-decoration="none" text-anchor="middle" fill="rgb(0,0,0)" fill-opacity="1" transform="translate(91.5 0)"><tspan dy="0.9166666666666666em" x="0">Attribute board contains booleans,</tspan><tspan dy="1.5em" x="0">attribute constraints contains ints</tspan></text></g><g class="uml-node" transform="translate(214.5029761904762 444)"><rect fill="rgb(96,125,139)" stroke="rgb(96,125,139)" stroke-opacity="1" stroke-width="2" stroke-linecap="butt" stroke-linejoin="miter" stroke-miterlimit="10" fill-opacity="1" x="0" y="0" width="201.875" height="92" rx="0" ry="0"/><g transform="translate(0 0)"><text font-family="Arial" font-size="12px" font-style="normal" font-weight="normal" text-decoration="none" text-anchor="middle" fill="rgb(255,255,255)" fill-opacity="1" dy="0.9166666666666666em" transform="translate(100.9375 18)">Image_to_board</text></g><rect fill="rgb(255,255,255)" x="1" y="50" width="199.875" height="2"/><g transform="translate(0 52)" cursor="pointer"><rect fill="rgb(96,125,139)" stroke="none" fill-opacity="1" x="0" y="0" width="201.875" height="20" rx="0" ry="0"/><polygon fill="white" points="-3.5,5 6,0 -3.5,-5" transform="translate(12 10)" class="uml-button"/><g class="uml-button"><rect fill="rgb(96,125,139)" fill-opacity="1" x="164.875px" y="2px" width="16px" height="16px"/><path fill="white" d="M8.5,16.5c-4.418,0-8,3.582-8,8s3.582,8,8,8c4.418,0,8-3.582,8-8S12.918,16.5,8.5,16.5z M13.5,25.5h-4v4h-2v-4h-4v-2h4v-4h2v4h4V25.5z" transform="matrix(0.8 0 0 0.8 165.875 -10)"/></g><g class="uml-button disabled"><rect fill="rgb(96,125,139)" fill-opacity="1" x="182.875px" y="2px" width="16px" height="16px"/><path fill="white" fill-opacity="0.5" d="M8.5,16.5c-4.418,0-8,3.582-8,8s3.582,8,8,8c4.418,0,8-3.582,8-8S12.918,16.5,8.5,16.5z M13.5,25.5h-10v-2h10V25.5z" transform="matrix(0.8 0 0 0.8 183.875 -10)"/></g></g><g transform="translate(25 52)" cursor="pointer"><text font-family="Arial" font-size="12px" font-style="normal" font-weight="normal" text-decoration="none" text-anchor="start" fill="rgb(255,255,255)" fill-opacity="1" dy="0.9166666666666666em" transform="translate(0 3)">Attributes</text></g><rect fill="rgb(255,255,255)" x="1" y="72" width="199.875" height="0"/><g transform="translate(0 72)" cursor="pointer"><rect fill="rgb(96,125,139)" stroke="none" fill-opacity="1" x="0" y="0" width="201.875" height="20" rx="0" ry="0"/><polygon fill="white" points="-5,-3.5 5,-3.5 0,6" transform="translate(12 10)" class="uml-button"/><g class="uml-button"><rect fill="rgb(96,125,139)" fill-opacity="1" x="164.875px" y="2px" width="16px" height="16px"/><path fill="white" d="M8.5,16.5c-4.418,0-8,3.582-8,8s3.582,8,8,8c4.418,0,8-3.582,8-8S12.918,16.5,8.5,16.5z M13.5,25.5h-4v4h-2v-4h-4v-2h4v-4h2v4h4V25.5z" transform="matrix(0.8 0 0 0.8 165.875 -10)"/></g><g class="uml-button disabled"><rect fill="rgb(96,125,139)" fill-opacity="1" x="182.875px" y="2px" width="16px" height="16px"/><path fill="white" fill-opacity="0.5" d="M8.5,16.5c-4.418,0-8,3.582-8,8s3.582,8,8,8c4.418,0,8-3.582,8-8S12.918,16.5,8.5,16.5z M13.5,25.5h-10v-2h10V25.5z" transform="matrix(0.8 0 0 0.8 183.875 -10)"/></g></g><g transform="translate(25 72)" cursor="pointer"><text font-family="Arial" font-size="12px" font-style="normal" font-weight="normal" text-decoration="none" text-anchor="start" fill="rgb(255,255,255)" fill-opacity="1" dy="0.9166666666666666em" transform="translate(0 3)">Operations</text></g><rect fill="rgb(255,255,255)" x="1" y="92" width="199.875" height="0"/><rect fill="rgb(255,255,255)" x="1" y="92" width="199.875" height="2"/></g><g class="uml-node" transform="translate(850.7621031746032 262)"><rect fill="rgb(96,125,139)" stroke="rgb(96,125,139)" stroke-opacity="1" stroke-width="2" stroke-linecap="butt" stroke-linejoin="miter" stroke-miterlimit="10" fill-opacity="1" x="0" y="0" width="142.125" height="108" rx="0" ry="0"/><g transform="translate(0 0)"><text font-family="Arial" font-size="12px" font-style="normal" font-weight="normal" text-decoration="none" text-anchor="middle" fill="rgb(255,255,255)" fill-opacity="1" dy="0.9166666666666666em" transform="translate(71.0625 18)">save_nonograms</text></g><rect fill="rgb(255,255,255)" x="1" y="50" width="140.125" height="2"/><g transform="translate(0 52)" cursor="pointer"><rect fill="rgb(96,125,139)" stroke="none" fill-opacity="1" x="0" y="0" width="142.125" height="20" rx="0" ry="0"/><polygon fill="white" points="-3.5,5 6,0 -3.5,-5" transform="translate(12 10)" class="uml-button"/><g class="uml-button"><rect fill="rgb(96,125,139)" fill-opacity="1" x="105.125px" y="2px" width="16px" height="16px"/><path fill="white" d="M8.5,16.5c-4.418,0-8,3.582-8,8s3.582,8,8,8c4.418,0,8-3.582,8-8S12.918,16.5,8.5,16.5z M13.5,25.5h-4v4h-2v-4h-4v-2h4v-4h2v4h4V25.5z" transform="matrix(0.8 0 0 0.8 106.125 -10)"/></g><g class="uml-button disabled"><rect fill="rgb(96,125,139)" fill-opacity="1" x="123.125px" y="2px" width="16px" height="16px"/><path fill="white" fill-opacity="0.5" d="M8.5,16.5c-4.418,0-8,3.582-8,8s3.582,8,8,8c4.418,0,8-3.582,8-8S12.918,16.5,8.5,16.5z M13.5,25.5h-10v-2h10V25.5z" transform="matrix(0.8 0 0 0.8 124.125 -10)"/></g></g><g transform="translate(25 52)" cursor="pointer"><text font-family="Arial" font-size="12px" font-style="normal" font-weight="normal" text-decoration="none" text-anchor="start" fill="rgb(255,255,255)" fill-opacity="1" dy="0.9166666666666666em" transform="translate(0 3)">Attributes</text></g><rect fill="rgb(255,255,255)" x="1" y="72" width="140.125" height="0"/><g transform="translate(0 72)" cursor="pointer"><rect fill="rgb(96,125,139)" stroke="none" fill-opacity="1" x="0" y="0" width="142.125" height="20" rx="0" ry="0"/><polygon fill="white" points="-5,-3.5 5,-3.5 0,6" transform="translate(12 10)" class="uml-button"/><g class="uml-button"><rect fill="rgb(96,125,139)" fill-opacity="1" x="105.125px" y="2px" width="16px" height="16px"/><path fill="white" d="M8.5,16.5c-4.418,0-8,3.582-8,8s3.582,8,8,8c4.418,0,8-3.582,8-8S12.918,16.5,8.5,16.5z M13.5,25.5h-4v4h-2v-4h-4v-2h4v-4h2v4h4V25.5z" transform="matrix(0.8 0 0 0.8 106.125 -10)"/></g><g class="uml-button disabled"><rect fill="rgb(96,125,139)" fill-opacity="1" x="123.125px" y="2px" width="16px" height="16px"/><path fill="white" fill-opacity="0.5" d="M8.5,16.5c-4.418,0-8,3.582-8,8s3.582,8,8,8c4.418,0,8-3.582,8-8S12.918,16.5,8.5,16.5z M13.5,25.5h-10v-2h10V25.5z" transform="matrix(0.8 0 0 0.8 124.125 -10)"/></g></g><g transform="translate(25 72)" cursor="pointer"><text font-family="Arial" font-size="12px" font-style="normal" font-weight="normal" text-decoration="none" text-anchor="start" fill="rgb(255,255,255)" fill-opacity="1" dy="0.9166666666666666em" transform="translate(0 3)">Operations</text></g><rect fill="rgb(255,255,255)" x="1" y="92" width="140.125" height="16"/><g transform="translate(25 92)"><text font-family="Arial" font-size="12px" font-style="normal" font-weight="normal" text-decoration="none" text-anchor="start" fill="rgb(0,0,0)" fill-opacity="1" dy="0.9166666666666666em" transform="translate(0 1)">save_board()</text></g><rect fill="rgb(255,255,255)" x="1" y="108" width="140.125" height="0"/></g><g class="uml-node" transform="translate(673.1281746031746 32)"><rect fill="rgb(96,125,139)" stroke="rgb(96,125,139)" stroke-opacity="1" stroke-width="2" stroke-linecap="butt" stroke-linejoin="miter" stroke-miterlimit="10" fill-opacity="1" x="0" y="0" width="132.25" height="124" rx="0" ry="0"/><g transform="translate(0 0)"><text font-family="Arial" font-size="12px" font-style="normal" font-weight="normal" text-decoration="none" text-anchor="middle" fill="rgb(255,255,255)" fill-opacity="1" dy="0.9166666666666666em" transform="translate(66.125 18)">save_state</text></g><rect fill="rgb(255,255,255)" x="1" y="50" width="130.25" height="2"/><g transform="translate(0 52)" cursor="pointer"><rect fill="rgb(96,125,139)" stroke="none" fill-opacity="1" x="0" y="0" width="132.25" height="20" rx="0" ry="0"/><polygon fill="white" points="-3.5,5 6,0 -3.5,-5" transform="translate(12 10)" class="uml-button"/><g class="uml-button"><rect fill="rgb(96,125,139)" fill-opacity="1" x="95.25px" y="2px" width="16px" height="16px"/><path fill="white" d="M8.5,16.5c-4.418,0-8,3.582-8,8s3.582,8,8,8c4.418,0,8-3.582,8-8S12.918,16.5,8.5,16.5z M13.5,25.5h-4v4h-2v-4h-4v-2h4v-4h2v4h4V25.5z" transform="matrix(0.8 0 0 0.8 96.25 -10)"/></g><g class="uml-button disabled"><rect fill="rgb(96,125,139)" fill-opacity="1" x="113.25px" y="2px" width="16px" height="16px"/><path fill="white" fill-opacity="0.5" d="M8.5,16.5c-4.418,0-8,3.582-8,8s3.582,8,8,8c4.418,0,8-3.582,8-8S12.918,16.5,8.5,16.5z M13.5,25.5h-10v-2h10V25.5z" transform="matrix(0.8 0 0 0.8 114.25 -10)"/></g></g><g transform="translate(25 52)" cursor="pointer"><text font-family="Arial" font-size="12px" font-style="normal" font-weight="normal" text-decoration="none" text-anchor="start" fill="rgb(255,255,255)" fill-opacity="1" dy="0.9166666666666666em" transform="translate(0 3)">Attributes</text></g><rect fill="rgb(255,255,255)" x="1" y="72" width="130.25" height="0"/><g transform="translate(0 72)" cursor="pointer"><rect fill="rgb(96,125,139)" stroke="none" fill-opacity="1" x="0" y="0" width="132.25" height="20" rx="0" ry="0"/><polygon fill="white" points="-5,-3.5 5,-3.5 0,6" transform="translate(12 10)" class="uml-button"/><g class="uml-button"><rect fill="rgb(96,125,139)" fill-opacity="1" x="95.25px" y="2px" width="16px" height="16px"/><path fill="white" d="M8.5,16.5c-4.418,0-8,3.582-8,8s3.582,8,8,8c4.418,0,8-3.582,8-8S12.918,16.5,8.5,16.5z M13.5,25.5h-4v4h-2v-4h-4v-2h4v-4h2v4h4V25.5z" transform="matrix(0.8 0 0 0.8 96.25 -10)"/></g><g class="uml-button disabled"><rect fill="rgb(96,125,139)" fill-opacity="1" x="113.25px" y="2px" width="16px" height="16px"/><path fill="white" fill-opacity="0.5" d="M8.5,16.5c-4.418,0-8,3.582-8,8s3.582,8,8,8c4.418,0,8-3.582,8-8S12.918,16.5,8.5,16.5z M13.5,25.5h-10v-2h10V25.5z" transform="matrix(0.8 0 0 0.8 114.25 -10)"/></g></g><g transform="translate(25 72)" cursor="pointer"><text font-family="Arial" font-size="12px" font-style="normal" font-weight="normal" text-decoration="none" text-anchor="start" fill="rgb(255,255,255)" fill-opacity="1" dy="0.9166666666666666em" transform="translate(0 3)">Operations</text></g><rect fill="rgb(255,255,255)" x="1" y="92" width="130.25" height="32"/><g transform="translate(25 92)"><text font-family="Arial" font-size="12px" font-style="normal" font-weight="normal" text-decoration="none" text-anchor="start" fill="rgb(0,0,0)" fill-opacity="1" dy="0.9166666666666666em" transform="translate(0 1)">save_board()</text></g><g transform="translate(25 108)"><text font-family="Arial" font-size="12px" font-style="normal" font-weight="normal" text-decoration="none" text-anchor="start" fill="rgb(0,0,0)" fill-opacity="1" dy="0.9166666666666666em" transform="translate(0 1)">load_state()</text></g><rect fill="rgb(255,255,255)" x="1" y="124" width="130.25" height="0"/></g></g></g></svg>